{"title":"Six.Nations-England.v.Scotland-2013.02.02.720p.x264","uid":8096545,"size":2513525936,"categoryP":"video","categoryS":"hd___tv_shows","magnet":"?xt=urn:btih:a8fc8e12e1fd70865ac908f31a96d449a7b308ad&amp;dn=Six.Nations-England.v.Scotland-2013.02.02.720p.x264&amp;tr=udp%3A%2F%2Ftracker.openbittorrent.com%3A80&amp;tr=udp%3A%2F%2Fopen.demonii.com%3A1337&amp;tr=udp%3A%2F%2Ftracker.coppersurfer.tk%3A6969&amp;tr=udp%3A%2F%2Fexodus.desync.com%3A6969","seeders":1,"leechers":0,"uploader":"rugbybill","files":2,"time":1359850336,"description":"SPORT: Six Nations Rugby Union - England v Scotland.\nOn: BBC 1 HD \nDate: Saturday 2nd February 2013 \nKO Time: 16:00\n\nLive action as England and Scotland begin their Six Nations campaigns by contesting the Calcutta Cup at Twickenham. England are looking for a fourth consecutive Test victory over the Auld Enemy, having won last season's Murrayfield encounter 13-6, courtesy of a Charlie Hodgson try. And they begin the Six Nations among the favourites to take this year's title following their memorable win against world champions New Zealand in November. For Scotland the game marks the beginning of a new era after the departure of former head coach Andy Robinson, as his interim replacement Scott Johnson takes charge for the first time. \nAndrew Cotter and Brian Moore are in the commentary box.\n\n\nGeneral\nComplete name: 2013.02.02.6N.England.v.Scotland.720p.x264.mp4\nFormat: MPEG-4\nFormat profile: Base Media\nCodec ID: isom\nFile size: 2.34 GiB\nDuration: 1h 36mn\nOverall bit rate mode: Variable\nOverall bit rate: 3 462 Kbps\n\nVideo\nID: 1\nFormat: AVC\nFormat/Info: Advanced Video Codec\nFormat profile: &lt;a class=&quot;__cf_email__&quot; href=&quot;/cdn-cgi/l/email-protection&quot; data-cfemail=&quot;642c0d030c2428504a55&quot;&gt;[email&amp;#160;protected]&lt;/a&gt;&lt;script cf-hash='f9e31' type=&quot;text/javascript&quot;&gt;\n/* &lt;![CDATA[ */!function(){try{var t=&quot;currentScript&quot;in document?document.currentScript:function(){for(var t=document.getElementsByTagName(&quot;script&quot;),e=t.length;e--;)if(t[e].getAttribute(&quot;cf-hash&quot;))return t[e]}();if(t&amp;&amp;t.previousSibling){var e,r,n,i,c=t.previousSibling,a=c.getAttribute(&quot;data-cfemail&quot;);if(a){for(e=&quot;&quot;,r=parseInt(a.substr(0,2),16),n=2;a.length-n;n+=2)i=parseInt(a.substr(n,2),16)^r,e+=String.fromCharCode(i);e=document.createTextNode(e),c.parentNode.replaceChild(e,c)}}}catch(u){}}();/* ]]&gt; */&lt;/script&gt;\nFormat settings, CABAC: Yes\nFormat settings, ReFrames: 5 frames\nCodec ID: avc1\nCodec ID/Info: Advanced Video Coding\nDuration: 1h 36mn\nBit rate: 3 334 Kbps\nMaximum bit rate: 8 658 Kbps\nWidth: 1 280 pixels\nHeight: 720 pixels\nDisplay aspect ratio: 16:9\nFrame rate mode: Constant\nFrame rate: 25.000 fps\nColor space: YUV\nChroma subsampling: 4:2:0\nBit depth: 8 bits\nScan type: Progressive\nBits/(Pixel*Frame): 0.145\nStream size: 2.25 GiB (96%)\nWriting library: x264 core 129 r2230 1cffe9f\n\nAudio\nID: 2\nFormat: AAC\nFormat/Info: Advanced Audio Codec\nFormat profile: LC\nCodec ID: 40\nDuration: 1h 36mn\nBit rate mode: Variable\nBit rate: 124 Kbps\nMaximum bit rate: 127 Kbps\nChannel(s): 2 channels\nChannel positions: Front: L R\nSampling rate: 48.0 KHz\nCompression mode: Lossy\nDelay relative to video: 80ms\nStream size: 85.8 MiB (4%)\nLanguage: English\n\n\n","torrent":{"xt":"urn:btih:a8fc8e12e1fd70865ac908f31a96d449a7b308ad","amp;dn":"Six.Nations-England.v.Scotland-2013.02.02.720p.x264","amp;tr":["udp%3A%2F%2Ftracker.openbittorrent.com%3A80","udp%3A%2F%2Fopen.demonii.com%3A1337","udp%3A%2F%2Ftracker.coppersurfer.tk%3A6969","udp%3A%2F%2Fexodus.desync.com%3A6969"],"infoHash":"a8fc8e12e1fd70865ac908f31a96d449a7b308ad","infoHashBuffer":{"type":"Buffer","data":[168,252,142,18,225,253,112,134,90,201,8,243,26,150,212,73,167,179,8,173]},"announce":[],"urlList":[]}}